<mxfile host="app.diagrams.net" agent="Mozilla/5.0 (Windows NT 10.0; Win64; x64) AppleWebKit/537.36 (KHTML, like Gecko) Chrome/131.0.0.0 Safari/537.36" version="24.8.4">
  <diagram id="_Zeu2Und_BIN9iEwyCzT" name="Page-1">
    <mxGraphModel dx="3585" dy="1845" grid="1" gridSize="10" guides="1" tooltips="1" connect="1" arrows="1" fold="1" page="1" pageScale="1" pageWidth="1600" pageHeight="900" math="0" shadow="0">
      <root>
        <mxCell id="0" />
        <mxCell id="1" parent="0" />
        <mxCell id="a6Zs2eqveyUoSRwlcodf-14" value="&lt;b style=&quot;&quot;&gt;&lt;font color=&quot;#803e74&quot; style=&quot;font-size: 22px;&quot;&gt;flask_app_form:5001&lt;/font&gt;&lt;/b&gt;" style="rounded=1;whiteSpace=wrap;html=1;verticalAlign=top;shadow=0;" parent="1" vertex="1">
          <mxGeometry x="1237" y="115" width="539" height="705" as="geometry" />
        </mxCell>
        <mxCell id="a6Zs2eqveyUoSRwlcodf-38" value="&lt;b&gt;&lt;font style=&quot;font-size: 13px;&quot; color=&quot;#ff0000&quot;&gt;scripts&lt;/font&gt;&lt;/b&gt;" style="rounded=1;whiteSpace=wrap;html=1;fillColor=#fff2cc;strokeColor=#d6b656;verticalAlign=top;shadow=0;" parent="1" vertex="1">
          <mxGeometry x="1530" y="446" width="180" height="330" as="geometry" />
        </mxCell>
        <mxCell id="iOH8eXoNTPQZBnvEToZv-1" value="&lt;b style=&quot;&quot;&gt;&lt;font color=&quot;#803e74&quot; style=&quot;font-size: 22px;&quot;&gt;app_admin:5000&lt;/font&gt;&lt;/b&gt;" style="rounded=1;whiteSpace=wrap;html=1;verticalAlign=top;shadow=0;" parent="1" vertex="1">
          <mxGeometry y="115" width="1030" height="705" as="geometry" />
        </mxCell>
        <mxCell id="EPMx4ZkjcdX6J0T9C3sz-62" style="edgeStyle=orthogonalEdgeStyle;shape=flexArrow;rounded=0;orthogonalLoop=1;jettySize=auto;html=1;exitX=1;exitY=0.5;exitDx=0;exitDy=0;entryX=0.5;entryY=1;entryDx=0;entryDy=0;" edge="1" parent="1" source="iOH8eXoNTPQZBnvEToZv-2" target="EPMx4ZkjcdX6J0T9C3sz-50">
          <mxGeometry relative="1" as="geometry" />
        </mxCell>
        <mxCell id="iOH8eXoNTPQZBnvEToZv-2" value="&lt;b&gt;&lt;font color=&quot;#990000&quot; style=&quot;font-size: 22px;&quot;&gt;mongodb&lt;/font&gt;&lt;/b&gt;" style="rounded=1;whiteSpace=wrap;html=1;verticalAlign=bottom;shadow=0;" parent="1" vertex="1">
          <mxGeometry y="1075" width="2100" height="290" as="geometry" />
        </mxCell>
        <mxCell id="RmUFOiHxUIWrtxg6m0vL-1" value="&lt;b&gt;&lt;font color=&quot;#ff9999&quot; style=&quot;font-size: 14px;&quot;&gt;app_data_form&lt;/font&gt;&lt;/b&gt;" style="shape=cylinder3;whiteSpace=wrap;html=1;boundedLbl=1;backgroundOutline=1;size=15;verticalAlign=bottom;fillColor=#ffcc99;strokeColor=#36393d;fillStyle=hatch;shadow=0;" parent="1" vertex="1">
          <mxGeometry x="1280" y="1100" width="410" height="240" as="geometry" />
        </mxCell>
        <mxCell id="iOH8eXoNTPQZBnvEToZv-3" value="&lt;b&gt;&lt;font color=&quot;#ff9999&quot; style=&quot;font-size: 14px;&quot;&gt;app_data&lt;/font&gt;&lt;/b&gt;" style="shape=cylinder3;whiteSpace=wrap;html=1;boundedLbl=1;backgroundOutline=1;size=15;verticalAlign=bottom;fillColor=#ffcc99;strokeColor=#36393d;fillStyle=hatch;shadow=0;" parent="1" vertex="1">
          <mxGeometry x="200" y="1100" width="750" height="240" as="geometry" />
        </mxCell>
        <mxCell id="iOH8eXoNTPQZBnvEToZv-51" value="&lt;b&gt;&lt;font style=&quot;font-size: 13px;&quot; color=&quot;#ff0000&quot;&gt;scripts&lt;/font&gt;&lt;/b&gt;" style="rounded=1;whiteSpace=wrap;html=1;fillColor=#fff2cc;strokeColor=#d6b656;verticalAlign=top;shadow=0;" parent="1" vertex="1">
          <mxGeometry x="40" y="446" width="950" height="330" as="geometry" />
        </mxCell>
        <mxCell id="iOH8eXoNTPQZBnvEToZv-49" value="&lt;b&gt;&lt;font style=&quot;font-size: 13px;&quot; color=&quot;#007fff&quot;&gt;functions&lt;/font&gt;&lt;/b&gt;" style="rounded=1;whiteSpace=wrap;html=1;fillColor=#dae8fc;strokeColor=#6c8ebf;verticalAlign=top;shadow=0;" parent="1" vertex="1">
          <mxGeometry x="1046" y="522" width="180" height="256" as="geometry" />
        </mxCell>
        <mxCell id="iOH8eXoNTPQZBnvEToZv-33" style="edgeStyle=orthogonalEdgeStyle;curved=1;rounded=0;orthogonalLoop=1;jettySize=auto;html=1;exitX=0.5;exitY=0;exitDx=0;exitDy=0;entryX=0;entryY=0.25;entryDx=0;entryDy=0;strokeColor=none;shadow=0;" parent="1" source="iOH8eXoNTPQZBnvEToZv-4" target="iOH8eXoNTPQZBnvEToZv-6" edge="1">
          <mxGeometry relative="1" as="geometry" />
        </mxCell>
        <mxCell id="iOH8eXoNTPQZBnvEToZv-4" value="ml_gridsearchcv" style="rounded=1;whiteSpace=wrap;html=1;fillColor=#ffe6cc;strokeColor=#d79b00;shadow=0;" parent="1" vertex="1">
          <mxGeometry x="80" y="636" width="120" height="60" as="geometry" />
        </mxCell>
        <mxCell id="iOH8eXoNTPQZBnvEToZv-29" style="edgeStyle=orthogonalEdgeStyle;curved=1;rounded=0;orthogonalLoop=1;jettySize=auto;html=1;exitX=0.5;exitY=1;exitDx=0;exitDy=0;entryX=0.5;entryY=0;entryDx=0;entryDy=0;entryPerimeter=0;fillColor=#f8cecc;strokeColor=#b85450;strokeWidth=2;shadow=0;" parent="1" source="iOH8eXoNTPQZBnvEToZv-5" target="iOH8eXoNTPQZBnvEToZv-16" edge="1">
          <mxGeometry relative="1" as="geometry">
            <Array as="points">
              <mxPoint x="320" y="1180" />
            </Array>
          </mxGeometry>
        </mxCell>
        <mxCell id="iOH8eXoNTPQZBnvEToZv-5" value="concat_db.py" style="rounded=1;whiteSpace=wrap;html=1;fillColor=#ffe6cc;strokeColor=#d79b00;shadow=0;" parent="1" vertex="1">
          <mxGeometry x="260" y="636" width="120" height="60" as="geometry" />
        </mxCell>
        <mxCell id="iOH8eXoNTPQZBnvEToZv-41" value="" style="ellipse;whiteSpace=wrap;html=1;fillColor=none;strokeColor=#8f3a78;strokeWidth=2;fontColor=#ffffff;shadow=0;" parent="1" vertex="1">
          <mxGeometry x="50" y="481" width="180" height="260" as="geometry" />
        </mxCell>
        <mxCell id="iOH8eXoNTPQZBnvEToZv-20" style="edgeStyle=orthogonalEdgeStyle;curved=1;rounded=0;orthogonalLoop=1;jettySize=auto;html=1;exitX=0.75;exitY=1;exitDx=0;exitDy=0;entryX=0.5;entryY=0;entryDx=0;entryDy=0;fillColor=#d80073;strokeColor=#A50040;strokeWidth=2;shadow=0;" parent="1" source="iOH8eXoNTPQZBnvEToZv-6" target="iOH8eXoNTPQZBnvEToZv-18" edge="1">
          <mxGeometry relative="1" as="geometry" />
        </mxCell>
        <mxCell id="iOH8eXoNTPQZBnvEToZv-32" style="edgeStyle=orthogonalEdgeStyle;curved=1;rounded=0;orthogonalLoop=1;jettySize=auto;html=1;exitX=0.25;exitY=1;exitDx=0;exitDy=0;fillColor=#d80073;strokeColor=#A50040;strokeWidth=2;shadow=0;" parent="1" source="iOH8eXoNTPQZBnvEToZv-6" target="iOH8eXoNTPQZBnvEToZv-5" edge="1">
          <mxGeometry relative="1" as="geometry" />
        </mxCell>
        <mxCell id="iOH8eXoNTPQZBnvEToZv-6" value="app_admin.py" style="rounded=1;whiteSpace=wrap;html=1;fontStyle=1;fillColor=#FF9CE4;shadow=0;" parent="1" vertex="1">
          <mxGeometry x="40" y="365" width="950" height="60" as="geometry" />
        </mxCell>
        <mxCell id="iOH8eXoNTPQZBnvEToZv-24" style="edgeStyle=orthogonalEdgeStyle;curved=1;rounded=0;orthogonalLoop=1;jettySize=auto;html=1;exitX=0.5;exitY=1;exitDx=0;exitDy=0;entryX=0.5;entryY=0;entryDx=0;entryDy=0;fillColor=#f8cecc;strokeColor=#b85450;strokeWidth=2;shadow=0;" parent="1" source="iOH8eXoNTPQZBnvEToZv-49" target="iOH8eXoNTPQZBnvEToZv-23" edge="1">
          <mxGeometry relative="1" as="geometry" />
        </mxCell>
        <mxCell id="iOH8eXoNTPQZBnvEToZv-21" style="edgeStyle=orthogonalEdgeStyle;curved=1;rounded=0;orthogonalLoop=1;jettySize=auto;html=1;exitX=1;exitY=1;exitDx=0;exitDy=0;fillColor=#d80073;strokeColor=#A50040;strokeWidth=2;entryX=0;entryY=0.75;entryDx=0;entryDy=0;shadow=0;" parent="1" source="iOH8eXoNTPQZBnvEToZv-18" target="iOH8eXoNTPQZBnvEToZv-49" edge="1">
          <mxGeometry relative="1" as="geometry" />
        </mxCell>
        <mxCell id="iOH8eXoNTPQZBnvEToZv-18" value="" style="ellipse;whiteSpace=wrap;html=1;fillColor=none;strokeColor=#A50040;strokeWidth=2;fontColor=#ffffff;shadow=0;" parent="1" vertex="1">
          <mxGeometry x="680" y="536" width="300" height="210" as="geometry" />
        </mxCell>
        <mxCell id="iOH8eXoNTPQZBnvEToZv-15" value="form_flight_infos" style="shape=cylinder3;whiteSpace=wrap;html=1;boundedLbl=1;backgroundOutline=1;size=15;shadow=0;" parent="1" vertex="1">
          <mxGeometry x="1319" y="1180" width="60" height="80" as="geometry" />
        </mxCell>
        <mxCell id="iOH8eXoNTPQZBnvEToZv-31" style="edgeStyle=orthogonalEdgeStyle;curved=1;rounded=0;orthogonalLoop=1;jettySize=auto;html=1;exitX=0;exitY=0.5;exitDx=0;exitDy=0;exitPerimeter=0;entryX=0.5;entryY=1;entryDx=0;entryDy=0;fillColor=#dae8fc;strokeColor=#6c8ebf;strokeWidth=2;shadow=0;" parent="1" source="iOH8eXoNTPQZBnvEToZv-16" target="iOH8eXoNTPQZBnvEToZv-41" edge="1">
          <mxGeometry relative="1" as="geometry" />
        </mxCell>
        <mxCell id="iOH8eXoNTPQZBnvEToZv-16" value="final_flights" style="shape=cylinder3;whiteSpace=wrap;html=1;boundedLbl=1;backgroundOutline=1;size=15;shadow=0;" parent="1" vertex="1">
          <mxGeometry x="290" y="1180" width="60" height="80" as="geometry" />
        </mxCell>
        <mxCell id="iOH8eXoNTPQZBnvEToZv-17" value="Pages Web&lt;br&gt;(HTTP)" style="rounded=0;whiteSpace=wrap;html=1;fillColor=#d5e8d4;strokeColor=#82b366;shadow=0;" parent="1" vertex="1">
          <mxGeometry x="1246" width="120" height="60" as="geometry" />
        </mxCell>
        <mxCell id="iOH8eXoNTPQZBnvEToZv-30" style="edgeStyle=orthogonalEdgeStyle;curved=1;rounded=0;orthogonalLoop=1;jettySize=auto;html=1;exitX=0.5;exitY=0;exitDx=0;exitDy=0;entryX=0.75;entryY=1;entryDx=0;entryDy=0;fillColor=#dae8fc;strokeColor=#6c8ebf;strokeWidth=2;shadow=0;" parent="1" source="iOH8eXoNTPQZBnvEToZv-23" target="iOH8eXoNTPQZBnvEToZv-5" edge="1">
          <mxGeometry relative="1" as="geometry">
            <Array as="points">
              <mxPoint x="575" y="905" />
              <mxPoint x="350" y="905" />
            </Array>
          </mxGeometry>
        </mxCell>
        <mxCell id="iOH8eXoNTPQZBnvEToZv-23" value="" style="ellipse;whiteSpace=wrap;html=1;fillColor=none;strokeColor=#b85450;shadow=0;" parent="1" vertex="1">
          <mxGeometry x="395" y="1145" width="360" height="150" as="geometry" />
        </mxCell>
        <mxCell id="iOH8eXoNTPQZBnvEToZv-7" value="all_flights.py" style="rounded=1;whiteSpace=wrap;html=1;fillColor=#ffe6cc;strokeColor=#d79b00;shadow=0;" parent="1" vertex="1">
          <mxGeometry x="770" y="556" width="120" height="60" as="geometry" />
        </mxCell>
        <mxCell id="iOH8eXoNTPQZBnvEToZv-8" value="asia_flights.py" style="rounded=1;whiteSpace=wrap;html=1;fillColor=#ffe6cc;strokeColor=#d79b00;shadow=0;" parent="1" vertex="1">
          <mxGeometry x="705" y="636" width="120" height="60" as="geometry" />
        </mxCell>
        <mxCell id="iOH8eXoNTPQZBnvEToZv-9" value="europe_flights.py" style="rounded=1;whiteSpace=wrap;html=1;fillColor=#ffe6cc;strokeColor=#d79b00;shadow=0;" parent="1" vertex="1">
          <mxGeometry x="835" y="636" width="120" height="60" as="geometry" />
        </mxCell>
        <mxCell id="iOH8eXoNTPQZBnvEToZv-11" value="all_flights" style="shape=cylinder3;whiteSpace=wrap;html=1;boundedLbl=1;backgroundOutline=1;size=15;shadow=0;" parent="1" vertex="1">
          <mxGeometry x="505" y="1180" width="60" height="80" as="geometry" />
        </mxCell>
        <mxCell id="iOH8eXoNTPQZBnvEToZv-13" value="europe_flights" style="shape=cylinder3;whiteSpace=wrap;html=1;boundedLbl=1;backgroundOutline=1;size=15;shadow=0;" parent="1" vertex="1">
          <mxGeometry x="585" y="1180" width="60" height="80" as="geometry" />
        </mxCell>
        <mxCell id="iOH8eXoNTPQZBnvEToZv-14" value="asia_flights" style="shape=cylinder3;whiteSpace=wrap;html=1;boundedLbl=1;backgroundOutline=1;size=15;shadow=0;" parent="1" vertex="1">
          <mxGeometry x="665" y="1180" width="60" height="80" as="geometry" />
        </mxCell>
        <mxCell id="iOH8eXoNTPQZBnvEToZv-27" style="edgeStyle=orthogonalEdgeStyle;curved=1;rounded=0;orthogonalLoop=1;jettySize=auto;html=1;exitX=0.5;exitY=1;exitDx=0;exitDy=0;entryX=0.5;entryY=0;entryDx=0;entryDy=0;entryPerimeter=0;fillColor=#f8cecc;strokeColor=#b85450;strokeWidth=2;shadow=0;" parent="1" source="iOH8eXoNTPQZBnvEToZv-49" target="iOH8eXoNTPQZBnvEToZv-15" edge="1">
          <mxGeometry relative="1" as="geometry" />
        </mxCell>
        <mxCell id="iOH8eXoNTPQZBnvEToZv-35" value="" style="endArrow=classic;startArrow=classic;html=1;rounded=0;curved=1;edgeStyle=orthogonalEdgeStyle;exitX=0.5;exitY=0;exitDx=0;exitDy=0;entryX=0.25;entryY=1;entryDx=0;entryDy=0;fillColor=#76608a;strokeColor=#8f3a78;strokeWidth=2;shadow=0;" parent="1" source="iOH8eXoNTPQZBnvEToZv-41" target="iOH8eXoNTPQZBnvEToZv-6" edge="1">
          <mxGeometry width="50" height="50" relative="1" as="geometry">
            <mxPoint x="570" y="435" as="sourcePoint" />
            <mxPoint x="620" y="385" as="targetPoint" />
          </mxGeometry>
        </mxCell>
        <mxCell id="iOH8eXoNTPQZBnvEToZv-37" value="" style="endArrow=classic;startArrow=classic;html=1;rounded=0;curved=1;entryX=0.5;entryY=1;entryDx=0;entryDy=0;exitX=0.25;exitY=0;exitDx=0;exitDy=0;fillColor=#d0cee2;strokeColor=#56517e;strokeWidth=3;edgeStyle=orthogonalEdgeStyle;shadow=0;" parent="1" source="iOH8eXoNTPQZBnvEToZv-52" target="iOH8eXoNTPQZBnvEToZv-17" edge="1">
          <mxGeometry width="50" height="50" relative="1" as="geometry">
            <mxPoint x="1508" y="330" as="sourcePoint" />
            <mxPoint x="1558" y="280" as="targetPoint" />
          </mxGeometry>
        </mxCell>
        <mxCell id="iOH8eXoNTPQZBnvEToZv-39" value="ml_compare" style="rounded=1;whiteSpace=wrap;html=1;fillColor=#ffe6cc;strokeColor=#d79b00;shadow=0;" parent="1" vertex="1">
          <mxGeometry x="80" y="536" width="120" height="60" as="geometry" />
        </mxCell>
        <mxCell id="iOH8eXoNTPQZBnvEToZv-42" value="temp_col" style="shape=cylinder3;whiteSpace=wrap;html=1;boundedLbl=1;backgroundOutline=1;size=15;shadow=0;" parent="1" vertex="1">
          <mxGeometry x="430" y="1180" width="60" height="80" as="geometry" />
        </mxCell>
        <mxCell id="iOH8eXoNTPQZBnvEToZv-45" value="" style="endArrow=classic;startArrow=classic;html=1;rounded=0;curved=1;exitX=0.5;exitY=0;exitDx=0;exitDy=0;entryX=0.5;entryY=1;entryDx=0;entryDy=0;strokeColor=#735B00;strokeWidth=3;shadow=0;" parent="1" source="iOH8eXoNTPQZBnvEToZv-10" target="iOH8eXoNTPQZBnvEToZv-43" edge="1">
          <mxGeometry width="50" height="50" relative="1" as="geometry">
            <mxPoint x="990" y="546" as="sourcePoint" />
            <mxPoint x="1040" y="496" as="targetPoint" />
          </mxGeometry>
        </mxCell>
        <mxCell id="iOH8eXoNTPQZBnvEToZv-47" value="Visualcrossing API&lt;br&gt;LHOpenAPI&lt;br&gt;Aviationstack API" style="rounded=0;whiteSpace=wrap;html=1;fillColor=#735B00;fontColor=#ffffff;strokeColor=#735B00;shadow=0;" parent="1" vertex="1">
          <mxGeometry x="1077" width="120" height="70" as="geometry" />
        </mxCell>
        <mxCell id="iOH8eXoNTPQZBnvEToZv-48" value="" style="endArrow=classic;startArrow=classic;html=1;rounded=0;curved=1;exitX=0.5;exitY=0;exitDx=0;exitDy=0;entryX=0.5;entryY=1;entryDx=0;entryDy=0;strokeColor=#735B00;strokeWidth=3;edgeStyle=orthogonalEdgeStyle;shadow=0;" parent="1" source="iOH8eXoNTPQZBnvEToZv-43" target="iOH8eXoNTPQZBnvEToZv-47" edge="1">
          <mxGeometry width="50" height="50" relative="1" as="geometry">
            <mxPoint x="877" y="701" as="sourcePoint" />
            <mxPoint x="1017" y="701" as="targetPoint" />
          </mxGeometry>
        </mxCell>
        <mxCell id="iOH8eXoNTPQZBnvEToZv-10" value="functions.py" style="rounded=1;whiteSpace=wrap;html=1;fillColor=#dae8fc;strokeColor=#6c8ebf;shadow=0;" parent="1" vertex="1">
          <mxGeometry x="1076" y="686" width="120" height="60" as="geometry" />
        </mxCell>
        <mxCell id="iOH8eXoNTPQZBnvEToZv-43" value="api_requests.py" style="rounded=1;whiteSpace=wrap;html=1;fillColor=#dae8fc;strokeColor=#6c8ebf;shadow=0;" parent="1" vertex="1">
          <mxGeometry x="1077" y="570" width="120" height="60" as="geometry" />
        </mxCell>
        <mxCell id="iOH8eXoNTPQZBnvEToZv-52" value="&lt;b&gt;&lt;font style=&quot;font-size: 13px;&quot; color=&quot;#ff0000&quot;&gt;templates&lt;/font&gt;&lt;/b&gt;" style="rounded=1;whiteSpace=wrap;html=1;fillColor=#d0cee2;strokeColor=#56517e;verticalAlign=bottom;shadow=0;" parent="1" vertex="1">
          <mxGeometry x="1298" y="190" width="420" height="100" as="geometry" />
        </mxCell>
        <mxCell id="iOH8eXoNTPQZBnvEToZv-53" value="index.html" style="rounded=1;whiteSpace=wrap;html=1;fillColor=#d0cee2;strokeColor=#56517e;shadow=0;" parent="1" vertex="1">
          <mxGeometry x="1318" y="202" width="120" height="60" as="geometry" />
        </mxCell>
        <mxCell id="iOH8eXoNTPQZBnvEToZv-54" value="flights.html" style="rounded=1;whiteSpace=wrap;html=1;fillColor=#d0cee2;strokeColor=#56517e;shadow=0;" parent="1" vertex="1">
          <mxGeometry x="1448" y="202" width="120" height="60" as="geometry" />
        </mxCell>
        <mxCell id="iOH8eXoNTPQZBnvEToZv-55" value="map.hmtl" style="rounded=1;whiteSpace=wrap;html=1;fillColor=#d0cee2;strokeColor=#56517e;shadow=0;" parent="1" vertex="1">
          <mxGeometry x="1578" y="202" width="120" height="60" as="geometry" />
        </mxCell>
        <mxCell id="a6Zs2eqveyUoSRwlcodf-1" value="&lt;font style=&quot;font-size: 9px;&quot;&gt;load_bson_to_temp_col.py&lt;/font&gt;" style="rounded=1;whiteSpace=wrap;html=1;fillColor=#ffe6cc;strokeColor=#d79b00;shadow=0;" parent="1" vertex="1">
          <mxGeometry x="400" y="636" width="120" height="60" as="geometry" />
        </mxCell>
        <mxCell id="a6Zs2eqveyUoSRwlcodf-2" style="edgeStyle=orthogonalEdgeStyle;curved=1;rounded=0;orthogonalLoop=1;jettySize=auto;html=1;exitX=0.75;exitY=1;exitDx=0;exitDy=0;fillColor=#d80073;strokeColor=#A50040;strokeWidth=2;entryX=0.5;entryY=0;entryDx=0;entryDy=0;shadow=0;" parent="1" source="iOH8eXoNTPQZBnvEToZv-6" target="a6Zs2eqveyUoSRwlcodf-1" edge="1">
          <mxGeometry relative="1" as="geometry">
            <mxPoint x="515" y="435" as="sourcePoint" />
            <mxPoint x="330" y="645" as="targetPoint" />
            <Array as="points">
              <mxPoint x="752" y="530" />
              <mxPoint x="460" y="530" />
            </Array>
          </mxGeometry>
        </mxCell>
        <mxCell id="a6Zs2eqveyUoSRwlcodf-3" style="edgeStyle=orthogonalEdgeStyle;curved=1;rounded=0;orthogonalLoop=1;jettySize=auto;html=1;exitX=0.5;exitY=1;exitDx=0;exitDy=0;entryX=0.5;entryY=0;entryDx=0;entryDy=0;entryPerimeter=0;fillColor=#f8cecc;strokeColor=#b85450;strokeWidth=2;shadow=0;" parent="1" source="a6Zs2eqveyUoSRwlcodf-1" target="iOH8eXoNTPQZBnvEToZv-42" edge="1">
          <mxGeometry relative="1" as="geometry">
            <Array as="points">
              <mxPoint x="460" y="1180" />
            </Array>
            <mxPoint x="330" y="705" as="sourcePoint" />
            <mxPoint x="290" y="1190" as="targetPoint" />
          </mxGeometry>
        </mxCell>
        <mxCell id="a6Zs2eqveyUoSRwlcodf-11" value="get_data&lt;br&gt;run_scripts&lt;br&gt;run_scripts_graph&lt;br&gt;index&lt;br&gt;(HTTP)" style="rounded=0;whiteSpace=wrap;html=1;fillColor=#d5e8d4;strokeColor=#82b366;shadow=0;" parent="1" vertex="1">
          <mxGeometry x="705" width="120" height="80" as="geometry" />
        </mxCell>
        <mxCell id="a6Zs2eqveyUoSRwlcodf-12" value="" style="endArrow=classic;startArrow=classic;html=1;rounded=0;curved=1;entryX=0.5;entryY=1;entryDx=0;entryDy=0;exitX=0.5;exitY=0;exitDx=0;exitDy=0;fillColor=#d0cee2;strokeColor=#56517e;strokeWidth=3;edgeStyle=orthogonalEdgeStyle;startFill=1;shadow=0;" parent="1" source="iOH8eXoNTPQZBnvEToZv-6" target="a6Zs2eqveyUoSRwlcodf-11" edge="1">
          <mxGeometry width="50" height="50" relative="1" as="geometry">
            <mxPoint x="380" y="375" as="sourcePoint" />
            <mxPoint x="510" y="70" as="targetPoint" />
          </mxGeometry>
        </mxCell>
        <mxCell id="a6Zs2eqveyUoSRwlcodf-13" value="app_form.py" style="rounded=1;whiteSpace=wrap;html=1;fontStyle=1;fillColor=#FF9CE4;shadow=0;" parent="1" vertex="1">
          <mxGeometry x="1259" y="365" width="497" height="60" as="geometry" />
        </mxCell>
        <mxCell id="a6Zs2eqveyUoSRwlcodf-15" value="run_scripts&lt;br&gt;(HTTP)" style="rounded=0;whiteSpace=wrap;html=1;fillColor=#d5e8d4;strokeColor=#82b366;shadow=0;" parent="1" vertex="1">
          <mxGeometry x="1746" width="120" height="60" as="geometry" />
        </mxCell>
        <mxCell id="a6Zs2eqveyUoSRwlcodf-32" value="" style="endArrow=classic;startArrow=classic;html=1;rounded=0;curved=1;entryX=1;entryY=0.5;entryDx=0;entryDy=0;exitX=0;exitY=0.5;exitDx=0;exitDy=0;fillColor=#d0cee2;strokeColor=#56517e;strokeWidth=3;edgeStyle=orthogonalEdgeStyle;startFill=1;shadow=0;" parent="1" source="EPMx4ZkjcdX6J0T9C3sz-19" target="a6Zs2eqveyUoSRwlcodf-13" edge="1">
          <mxGeometry width="50" height="50" relative="1" as="geometry">
            <mxPoint x="380" y="375" as="sourcePoint" />
            <mxPoint x="510" y="70" as="targetPoint" />
          </mxGeometry>
        </mxCell>
        <mxCell id="a6Zs2eqveyUoSRwlcodf-34" value="&lt;span style=&quot;text-wrap-mode: nowrap; font-size: 11px;&quot;&gt;Prédiction retard&lt;/span&gt;&lt;br style=&quot;text-wrap-mode: nowrap; font-size: 11px;&quot;&gt;&lt;span style=&quot;text-wrap-mode: nowrap; font-size: 11px;&quot;&gt;(HTTP POST)&lt;/span&gt;" style="rounded=0;whiteSpace=wrap;html=1;fillColor=#d5e8d4;strokeColor=#82b366;shadow=0;" parent="1" vertex="1">
          <mxGeometry x="1836" y="317.5" width="120" height="60" as="geometry" />
        </mxCell>
        <mxCell id="a6Zs2eqveyUoSRwlcodf-35" value="&lt;b&gt;&lt;font color=&quot;#ff9999&quot; style=&quot;font-size: 14px;&quot;&gt;app_credentials&lt;/font&gt;&lt;/b&gt;" style="shape=cylinder3;whiteSpace=wrap;html=1;boundedLbl=1;backgroundOutline=1;size=15;verticalAlign=bottom;fillColor=#ffcc99;strokeColor=#36393d;fillStyle=hatch;shadow=0;" parent="1" vertex="1">
          <mxGeometry x="1830" y="1100" width="160" height="240" as="geometry" />
        </mxCell>
        <mxCell id="a6Zs2eqveyUoSRwlcodf-36" value="users" style="shape=cylinder3;whiteSpace=wrap;html=1;boundedLbl=1;backgroundOutline=1;size=15;shadow=0;" parent="1" vertex="1">
          <mxGeometry x="1881" y="1180" width="60" height="80" as="geometry" />
        </mxCell>
        <mxCell id="a6Zs2eqveyUoSRwlcodf-37" value="" style="endArrow=classic;startArrow=none;html=1;rounded=0;curved=1;exitX=0.5;exitY=0;exitDx=0;exitDy=0;fillColor=#d0cee2;strokeColor=#56517e;strokeWidth=3;endFill=1;startFill=0;edgeStyle=orthogonalEdgeStyle;entryX=0.5;entryY=1;entryDx=0;entryDy=0;shadow=0;" parent="1" source="a6Zs2eqveyUoSRwlcodf-13" target="iOH8eXoNTPQZBnvEToZv-52" edge="1">
          <mxGeometry width="50" height="50" relative="1" as="geometry">
            <mxPoint x="751" y="375" as="sourcePoint" />
            <mxPoint x="846" y="305" as="targetPoint" />
          </mxGeometry>
        </mxCell>
        <mxCell id="a6Zs2eqveyUoSRwlcodf-39" value="test_pred_distant.py" style="rounded=1;whiteSpace=wrap;html=1;fillColor=#ffe6cc;strokeColor=#d79b00;shadow=0;" parent="1" vertex="1">
          <mxGeometry x="1560" y="581" width="120" height="60" as="geometry" />
        </mxCell>
        <mxCell id="a6Zs2eqveyUoSRwlcodf-40" value="" style="endArrow=classic;startArrow=classic;html=1;rounded=0;curved=1;exitX=0.5;exitY=0;exitDx=0;exitDy=0;fillColor=#d0cee2;strokeColor=#56517e;strokeWidth=2;endFill=1;startFill=1;edgeStyle=orthogonalEdgeStyle;entryX=0.5;entryY=1;entryDx=0;entryDy=0;dashed=1;dashPattern=1 1;shadow=0;" parent="1" source="a6Zs2eqveyUoSRwlcodf-39" target="a6Zs2eqveyUoSRwlcodf-15" edge="1">
          <mxGeometry width="50" height="50" relative="1" as="geometry">
            <mxPoint x="1799" y="375" as="sourcePoint" />
            <mxPoint x="1936" y="105" as="targetPoint" />
            <Array as="points">
              <mxPoint x="1620" y="315" />
              <mxPoint x="1806" y="315" />
            </Array>
          </mxGeometry>
        </mxCell>
        <mxCell id="a6Zs2eqveyUoSRwlcodf-42" value="test_col" style="shape=cylinder3;whiteSpace=wrap;html=1;boundedLbl=1;backgroundOutline=1;size=15;shadow=0;" parent="1" vertex="1">
          <mxGeometry x="1590" y="1180" width="60" height="80" as="geometry" />
        </mxCell>
        <mxCell id="a6Zs2eqveyUoSRwlcodf-46" style="edgeStyle=orthogonalEdgeStyle;curved=1;rounded=0;orthogonalLoop=1;jettySize=auto;html=1;exitX=0.5;exitY=0;exitDx=0;exitDy=0;entryX=0.5;entryY=1;entryDx=0;entryDy=0;fillColor=#dae8fc;strokeColor=#6c8ebf;strokeWidth=2;exitPerimeter=0;dashed=1;dashPattern=1 1;shadow=0;" parent="1" source="a6Zs2eqveyUoSRwlcodf-42" target="a6Zs2eqveyUoSRwlcodf-39" edge="1">
          <mxGeometry relative="1" as="geometry">
            <Array as="points">
              <mxPoint x="1620" y="1085" />
              <mxPoint x="1620" y="1085" />
            </Array>
            <mxPoint x="2006" y="1235" as="sourcePoint" />
            <mxPoint x="1826" y="785" as="targetPoint" />
          </mxGeometry>
        </mxCell>
        <mxCell id="a6Zs2eqveyUoSRwlcodf-47" value="&lt;font style=&quot;font-size: 12px;&quot;&gt;test_pred_.py&lt;/font&gt;" style="rounded=1;whiteSpace=wrap;html=1;fillColor=#ffe6cc;strokeColor=#d79b00;shadow=0;" parent="1" vertex="1">
          <mxGeometry x="540" y="636" width="120" height="60" as="geometry" />
        </mxCell>
        <mxCell id="a6Zs2eqveyUoSRwlcodf-48" style="edgeStyle=orthogonalEdgeStyle;curved=1;rounded=0;orthogonalLoop=1;jettySize=auto;html=1;exitX=0.75;exitY=1;exitDx=0;exitDy=0;entryX=0.5;entryY=0;entryDx=0;entryDy=0;fillColor=#d80073;strokeColor=#A50040;strokeWidth=2;shadow=0;" parent="1" source="iOH8eXoNTPQZBnvEToZv-6" target="a6Zs2eqveyUoSRwlcodf-47" edge="1">
          <mxGeometry relative="1" as="geometry">
            <mxPoint x="635" y="435" as="sourcePoint" />
            <mxPoint x="840" y="545" as="targetPoint" />
            <Array as="points">
              <mxPoint x="752" y="530" />
              <mxPoint x="600" y="530" />
            </Array>
          </mxGeometry>
        </mxCell>
        <mxCell id="a6Zs2eqveyUoSRwlcodf-50" value="test_col" style="shape=cylinder3;whiteSpace=wrap;html=1;boundedLbl=1;backgroundOutline=1;size=15;shadow=0;" parent="1" vertex="1">
          <mxGeometry x="800" y="1180" width="60" height="80" as="geometry" />
        </mxCell>
        <mxCell id="a6Zs2eqveyUoSRwlcodf-51" style="edgeStyle=orthogonalEdgeStyle;curved=1;rounded=0;orthogonalLoop=1;jettySize=auto;html=1;exitX=0.5;exitY=0;exitDx=0;exitDy=0;entryX=0.5;entryY=1;entryDx=0;entryDy=0;fillColor=#dae8fc;strokeColor=#6c8ebf;strokeWidth=2;exitPerimeter=0;shadow=0;" parent="1" source="a6Zs2eqveyUoSRwlcodf-50" target="a6Zs2eqveyUoSRwlcodf-47" edge="1">
          <mxGeometry relative="1" as="geometry">
            <Array as="points">
              <mxPoint x="830" y="1015" />
              <mxPoint x="600" y="1015" />
            </Array>
            <mxPoint x="540" y="1155" as="sourcePoint" />
            <mxPoint x="360" y="705" as="targetPoint" />
          </mxGeometry>
        </mxCell>
        <mxCell id="a6Zs2eqveyUoSRwlcodf-58" value="" style="shape=flexArrow;endArrow=classic;html=1;rounded=0;exitX=0.5;exitY=0;exitDx=0;exitDy=0;exitPerimeter=0;entryX=0.5;entryY=1;entryDx=0;entryDy=0;strokeColor=#6C8EBF;shadow=0;" parent="1" source="a6Zs2eqveyUoSRwlcodf-36" target="a6Zs2eqveyUoSRwlcodf-14" edge="1">
          <mxGeometry width="50" height="50" relative="1" as="geometry">
            <mxPoint x="1210" y="1040" as="sourcePoint" />
            <mxPoint x="1260" y="990" as="targetPoint" />
          </mxGeometry>
        </mxCell>
        <mxCell id="a6Zs2eqveyUoSRwlcodf-59" value="" style="shape=flexArrow;endArrow=classic;html=1;rounded=0;exitX=0.145;exitY=0;exitDx=0;exitDy=4.35;exitPerimeter=0;entryX=0.939;entryY=0.992;entryDx=0;entryDy=0;entryPerimeter=0;strokeColor=#6C8EBF;shadow=0;" parent="1" source="a6Zs2eqveyUoSRwlcodf-36" target="iOH8eXoNTPQZBnvEToZv-1" edge="1">
          <mxGeometry width="50" height="50" relative="1" as="geometry">
            <mxPoint x="1168" y="1194" as="sourcePoint" />
            <mxPoint x="1286" y="969" as="targetPoint" />
          </mxGeometry>
        </mxCell>
        <mxCell id="a6Zs2eqveyUoSRwlcodf-60" value="&lt;font color=&quot;#ff0000&quot;&gt;admin&lt;/font&gt;" style="html=1;verticalLabelPosition=bottom;align=center;labelBackgroundColor=#ffffff;verticalAlign=top;strokeWidth=2;strokeColor=#FF0000;shadow=0;dashed=0;shape=mxgraph.ios7.icons.locked;fillColor=default;" parent="1" vertex="1">
          <mxGeometry x="776" y="172" width="24" height="30" as="geometry" />
        </mxCell>
        <mxCell id="a6Zs2eqveyUoSRwlcodf-61" value="&lt;font color=&quot;#ff0000&quot;&gt;admin&lt;/font&gt;" style="html=1;verticalLabelPosition=bottom;align=center;labelBackgroundColor=#ffffff;verticalAlign=top;strokeWidth=2;strokeColor=#FF0000;shadow=0;dashed=0;shape=mxgraph.ios7.icons.locked;fillColor=default;" parent="1" vertex="1">
          <mxGeometry x="1823" y="150" width="24" height="30" as="geometry" />
        </mxCell>
        <mxCell id="a6Zs2eqveyUoSRwlcodf-64" value="&lt;font color=&quot;#ff0000&quot;&gt;users&lt;/font&gt;" style="html=1;verticalLabelPosition=bottom;align=center;labelBackgroundColor=#ffffff;verticalAlign=top;strokeWidth=2;strokeColor=#FF0000;shadow=0;dashed=0;shape=mxgraph.ios7.icons.locked;fillColor=default;" parent="1" vertex="1">
          <mxGeometry x="1325" y="133" width="24" height="30" as="geometry" />
        </mxCell>
        <mxCell id="a6Zs2eqveyUoSRwlcodf-72" value="&lt;font color=&quot;#ff0000&quot;&gt;API KEY&lt;/font&gt;" style="points=[[0,0.5,0],[0.24,0,0],[0.5,0.28,0],[0.995,0.475,0],[0.5,0.72,0],[0.24,1,0]];verticalLabelPosition=bottom;sketch=0;html=1;verticalAlign=top;aspect=fixed;align=center;pointerEvents=1;shape=mxgraph.cisco19.key;fillColor=#FF0000;strokeColor=none;shadow=0;" parent="1" vertex="1">
          <mxGeometry x="1872" y="402.5" width="50" height="22.5" as="geometry" />
        </mxCell>
        <mxCell id="a6Zs2eqveyUoSRwlcodf-76" value="&lt;font color=&quot;#735b00&quot;&gt;API KEY&lt;/font&gt;" style="points=[[0,0.5,0],[0.24,0,0],[0.5,0.28,0],[0.995,0.475,0],[0.5,0.72,0],[0.24,1,0]];verticalLabelPosition=bottom;sketch=0;html=1;verticalAlign=top;aspect=fixed;align=center;pointerEvents=1;shape=mxgraph.cisco19.key;fillColor=#735B00;strokeColor=#735B00;shadow=0;" parent="1" vertex="1">
          <mxGeometry x="1076" y="133.75" width="50" height="22.5" as="geometry" />
        </mxCell>
        <mxCell id="EPMx4ZkjcdX6J0T9C3sz-1" value="&lt;b style=&quot;&quot;&gt;&lt;font color=&quot;#803e74&quot; style=&quot;font-size: 22px;&quot;&gt;flask_app:5002&lt;/font&gt;&lt;/b&gt;" style="rounded=1;whiteSpace=wrap;html=1;verticalAlign=top;shadow=0;" vertex="1" parent="1">
          <mxGeometry x="2041" y="115" width="539" height="705" as="geometry" />
        </mxCell>
        <mxCell id="EPMx4ZkjcdX6J0T9C3sz-7" value="Pages Web&lt;br&gt;(HTTP)" style="rounded=0;whiteSpace=wrap;html=1;fillColor=#d5e8d4;strokeColor=#82b366;shadow=0;" vertex="1" parent="1">
          <mxGeometry x="2050" width="120" height="60" as="geometry" />
        </mxCell>
        <mxCell id="EPMx4ZkjcdX6J0T9C3sz-9" value="" style="endArrow=classic;startArrow=classic;html=1;rounded=0;curved=1;entryX=0.5;entryY=1;entryDx=0;entryDy=0;exitX=0.25;exitY=0;exitDx=0;exitDy=0;fillColor=#d0cee2;strokeColor=#56517e;strokeWidth=2;edgeStyle=orthogonalEdgeStyle;dashed=1;dashPattern=1 1;shadow=0;" edge="1" parent="1" source="EPMx4ZkjcdX6J0T9C3sz-10" target="EPMx4ZkjcdX6J0T9C3sz-7">
          <mxGeometry width="50" height="50" relative="1" as="geometry">
            <mxPoint x="2312" y="330" as="sourcePoint" />
            <mxPoint x="2362" y="280" as="targetPoint" />
          </mxGeometry>
        </mxCell>
        <mxCell id="EPMx4ZkjcdX6J0T9C3sz-10" value="&lt;b&gt;&lt;font style=&quot;font-size: 13px;&quot; color=&quot;#ff0000&quot;&gt;templates&lt;/font&gt;&lt;/b&gt;" style="rounded=1;whiteSpace=wrap;html=1;fillColor=#d0cee2;strokeColor=#56517e;verticalAlign=bottom;shadow=0;" vertex="1" parent="1">
          <mxGeometry x="2100" y="190" width="160" height="100" as="geometry" />
        </mxCell>
        <mxCell id="EPMx4ZkjcdX6J0T9C3sz-11" value="index.html" style="rounded=1;whiteSpace=wrap;html=1;fillColor=#d0cee2;strokeColor=#56517e;shadow=0;" vertex="1" parent="1">
          <mxGeometry x="2122" y="202" width="120" height="60" as="geometry" />
        </mxCell>
        <mxCell id="EPMx4ZkjcdX6J0T9C3sz-19" value="app.py" style="rounded=1;whiteSpace=wrap;html=1;fontStyle=1;fillColor=#FF9CE4;shadow=0;" vertex="1" parent="1">
          <mxGeometry x="2063" y="365" width="497" height="60" as="geometry" />
        </mxCell>
        <mxCell id="EPMx4ZkjcdX6J0T9C3sz-21" value="" style="endArrow=classic;startArrow=none;html=1;rounded=0;curved=1;exitX=0.5;exitY=0;exitDx=0;exitDy=0;fillColor=#d0cee2;strokeColor=#56517e;strokeWidth=2;endFill=1;startFill=0;edgeStyle=orthogonalEdgeStyle;entryX=0.5;entryY=1;entryDx=0;entryDy=0;dashed=1;dashPattern=1 1;shadow=0;" edge="1" parent="1" source="EPMx4ZkjcdX6J0T9C3sz-19" target="EPMx4ZkjcdX6J0T9C3sz-10">
          <mxGeometry width="50" height="50" relative="1" as="geometry">
            <mxPoint x="1555" y="375" as="sourcePoint" />
            <mxPoint x="1650" y="305" as="targetPoint" />
          </mxGeometry>
        </mxCell>
        <mxCell id="EPMx4ZkjcdX6J0T9C3sz-31" value="" style="endArrow=classic;startArrow=classic;html=1;rounded=0;curved=1;entryX=0.5;entryY=1;entryDx=0;entryDy=0;exitX=0.75;exitY=0;exitDx=0;exitDy=0;fillColor=#d0cee2;strokeColor=#56517e;strokeWidth=3;edgeStyle=orthogonalEdgeStyle;startFill=1;shadow=0;" edge="1" parent="1" target="EPMx4ZkjcdX6J0T9C3sz-32" source="EPMx4ZkjcdX6J0T9C3sz-19">
          <mxGeometry width="50" height="50" relative="1" as="geometry">
            <mxPoint x="2820" y="365" as="sourcePoint" />
            <mxPoint x="2815" y="75" as="targetPoint" />
          </mxGeometry>
        </mxCell>
        <mxCell id="EPMx4ZkjcdX6J0T9C3sz-32" value="&lt;span style=&quot;text-wrap-mode: nowrap; font-size: 11px;&quot;&gt;Prédiction retard&lt;/span&gt;&lt;br style=&quot;text-wrap-mode: nowrap; font-size: 11px;&quot;&gt;&amp;nbsp;(HTTP POST)" style="rounded=0;whiteSpace=wrap;html=1;fillColor=#d5e8d4;strokeColor=#82b366;shadow=0;" vertex="1" parent="1">
          <mxGeometry x="2394" width="120" height="60" as="geometry" />
        </mxCell>
        <mxCell id="EPMx4ZkjcdX6J0T9C3sz-33" value="&lt;font color=&quot;#ff0000&quot;&gt;API KEY&lt;/font&gt;" style="points=[[0,0.5,0],[0.24,0,0],[0.5,0.28,0],[0.995,0.475,0],[0.5,0.72,0],[0.24,1,0]];verticalLabelPosition=bottom;sketch=0;html=1;verticalAlign=top;aspect=fixed;align=center;pointerEvents=1;shape=mxgraph.cisco19.key;fillColor=#FF0000;strokeColor=none;shadow=0;" vertex="1" parent="1">
          <mxGeometry x="2464" y="228.75" width="50" height="22.5" as="geometry" />
        </mxCell>
        <mxCell id="EPMx4ZkjcdX6J0T9C3sz-37" style="edgeStyle=orthogonalEdgeStyle;curved=1;rounded=0;orthogonalLoop=1;jettySize=auto;html=1;exitX=0.25;exitY=1;exitDx=0;exitDy=0;fillColor=#d80073;strokeColor=#A50040;strokeWidth=2;entryX=1;entryY=0.75;entryDx=0;entryDy=0;shadow=0;" edge="1" parent="1" source="a6Zs2eqveyUoSRwlcodf-13" target="iOH8eXoNTPQZBnvEToZv-49">
          <mxGeometry relative="1" as="geometry">
            <mxPoint x="1259" y="535.52" as="sourcePoint" />
            <mxPoint x="1569" y="534.52" as="targetPoint" />
          </mxGeometry>
        </mxCell>
        <mxCell id="EPMx4ZkjcdX6J0T9C3sz-40" value="" style="shape=flexArrow;endArrow=classic;html=1;rounded=0;exitX=0.855;exitY=0;exitDx=0;exitDy=4.35;exitPerimeter=0;entryX=0.5;entryY=1;entryDx=0;entryDy=0;strokeColor=#6C8EBF;shadow=0;" edge="1" parent="1" source="a6Zs2eqveyUoSRwlcodf-36" target="EPMx4ZkjcdX6J0T9C3sz-1">
          <mxGeometry width="50" height="50" relative="1" as="geometry">
            <mxPoint x="1921" y="1190" as="sourcePoint" />
            <mxPoint x="1517" y="830" as="targetPoint" />
          </mxGeometry>
        </mxCell>
        <mxCell id="EPMx4ZkjcdX6J0T9C3sz-47" style="edgeStyle=orthogonalEdgeStyle;shape=flexArrow;rounded=1;orthogonalLoop=1;jettySize=auto;html=1;exitX=0;exitY=0.5;exitDx=0;exitDy=0;entryX=0.75;entryY=1;entryDx=0;entryDy=0;endSize=6;shadow=0;fillColor=#1ba1e2;strokeWidth=1;width=4;strokeColor=#006EAF;opacity=70;startArrow=block;" edge="1" parent="1" source="EPMx4ZkjcdX6J0T9C3sz-41" target="iOH8eXoNTPQZBnvEToZv-1">
          <mxGeometry relative="1" as="geometry" />
        </mxCell>
        <mxCell id="EPMx4ZkjcdX6J0T9C3sz-41" value="&lt;font color=&quot;#007fff&quot;&gt;&lt;span style=&quot;font-size: 13px;&quot;&gt;&lt;b&gt;model&lt;/b&gt;&lt;/span&gt;&lt;/font&gt;" style="rounded=1;whiteSpace=wrap;html=1;fillColor=#1ba1e2;strokeColor=#006EAF;verticalAlign=top;fontColor=#ffffff;gradientColor=none;fillStyle=auto;shadow=0;opacity=40;" vertex="1" parent="1">
          <mxGeometry x="1806" y="840" width="180" height="190" as="geometry" />
        </mxCell>
        <mxCell id="EPMx4ZkjcdX6J0T9C3sz-43" value="best_model.pkl" style="rounded=1;whiteSpace=wrap;html=1;fillColor=#1ba1e2;strokeColor=#006EAF;shadow=0;fontColor=#ffffff;opacity=60;" vertex="1" parent="1">
          <mxGeometry x="1836" y="950" width="120" height="60" as="geometry" />
        </mxCell>
        <mxCell id="EPMx4ZkjcdX6J0T9C3sz-44" value="ml_data_transform.py" style="rounded=1;whiteSpace=wrap;html=1;fillColor=#1ba1e2;strokeColor=#006EAF;shadow=0;fontColor=#ffffff;opacity=60;" vertex="1" parent="1">
          <mxGeometry x="1836" y="878" width="120" height="60" as="geometry" />
        </mxCell>
        <mxCell id="EPMx4ZkjcdX6J0T9C3sz-45" value="&lt;font color=&quot;#ff0000&quot;&gt;users&lt;/font&gt;" style="html=1;verticalLabelPosition=bottom;align=center;labelBackgroundColor=#ffffff;verticalAlign=top;strokeWidth=2;strokeColor=#FF0000;shadow=0;dashed=0;shape=mxgraph.ios7.icons.locked;fillColor=default;" vertex="1" parent="1">
          <mxGeometry x="2477" y="156.25" width="24" height="30" as="geometry" />
        </mxCell>
        <mxCell id="EPMx4ZkjcdX6J0T9C3sz-48" style="edgeStyle=orthogonalEdgeStyle;shape=flexArrow;rounded=1;orthogonalLoop=1;jettySize=auto;html=1;exitX=0;exitY=0.25;exitDx=0;exitDy=0;entryX=0.75;entryY=1;entryDx=0;entryDy=0;endSize=6;shadow=0;fillColor=#1ba1e2;strokeWidth=1;width=4;strokeColor=#006EAF;opacity=70;" edge="1" parent="1" source="EPMx4ZkjcdX6J0T9C3sz-41" target="a6Zs2eqveyUoSRwlcodf-14">
          <mxGeometry relative="1" as="geometry">
            <mxPoint x="1816" y="945" as="sourcePoint" />
            <mxPoint x="783" y="830" as="targetPoint" />
          </mxGeometry>
        </mxCell>
        <mxCell id="EPMx4ZkjcdX6J0T9C3sz-49" style="edgeStyle=orthogonalEdgeStyle;shape=flexArrow;rounded=1;orthogonalLoop=1;jettySize=auto;html=1;exitX=1;exitY=0.25;exitDx=0;exitDy=0;entryX=0.25;entryY=1;entryDx=0;entryDy=0;endSize=6;shadow=0;fillColor=#1ba1e2;strokeWidth=1;width=4;strokeColor=#006EAF;opacity=70;" edge="1" parent="1" source="EPMx4ZkjcdX6J0T9C3sz-41" target="EPMx4ZkjcdX6J0T9C3sz-1">
          <mxGeometry relative="1" as="geometry">
            <mxPoint x="1816" y="898" as="sourcePoint" />
            <mxPoint x="1651" y="830" as="targetPoint" />
          </mxGeometry>
        </mxCell>
        <mxCell id="EPMx4ZkjcdX6J0T9C3sz-50" value="&lt;b style=&quot;&quot;&gt;&lt;font color=&quot;#803e74&quot; style=&quot;font-size: 22px;&quot;&gt;flask_app_dash:8051&lt;/font&gt;&lt;/b&gt;" style="rounded=1;whiteSpace=wrap;html=1;verticalAlign=top;shadow=0;" vertex="1" parent="1">
          <mxGeometry x="2650" y="115" width="539" height="705" as="geometry" />
        </mxCell>
        <mxCell id="EPMx4ZkjcdX6J0T9C3sz-51" value="DATA VIZ&lt;br&gt;(HTTP)" style="rounded=0;whiteSpace=wrap;html=1;fillColor=#d5e8d4;strokeColor=#82b366;shadow=0;" vertex="1" parent="1">
          <mxGeometry x="2690" y="5" width="120" height="60" as="geometry" />
        </mxCell>
        <mxCell id="EPMx4ZkjcdX6J0T9C3sz-55" value="app.py" style="rounded=1;whiteSpace=wrap;html=1;fontStyle=1;fillColor=#FF9CE4;shadow=0;" vertex="1" parent="1">
          <mxGeometry x="2672" y="365" width="497" height="60" as="geometry" />
        </mxCell>
        <mxCell id="EPMx4ZkjcdX6J0T9C3sz-57" value="" style="endArrow=classic;startArrow=classic;html=1;rounded=0;curved=1;entryX=0.5;entryY=1;entryDx=0;entryDy=0;exitX=0.5;exitY=0;exitDx=0;exitDy=0;fillColor=#d0cee2;strokeColor=#56517e;strokeWidth=3;edgeStyle=orthogonalEdgeStyle;startFill=1;shadow=0;" edge="1" parent="1" source="EPMx4ZkjcdX6J0T9C3sz-55" target="EPMx4ZkjcdX6J0T9C3sz-51">
          <mxGeometry width="50" height="50" relative="1" as="geometry">
            <mxPoint x="3429" y="365" as="sourcePoint" />
            <mxPoint x="3424" y="75" as="targetPoint" />
          </mxGeometry>
        </mxCell>
        <mxCell id="EPMx4ZkjcdX6J0T9C3sz-60" value="&lt;font color=&quot;#ff0000&quot;&gt;users&lt;/font&gt;" style="html=1;verticalLabelPosition=bottom;align=center;labelBackgroundColor=#ffffff;verticalAlign=top;strokeWidth=2;strokeColor=#FF0000;shadow=0;dashed=0;shape=mxgraph.ios7.icons.locked;fillColor=default;" vertex="1" parent="1">
          <mxGeometry x="2710" y="156.25" width="24" height="30" as="geometry" />
        </mxCell>
        <mxCell id="EPMx4ZkjcdX6J0T9C3sz-61" style="edgeStyle=orthogonalEdgeStyle;shape=flexArrow;rounded=1;orthogonalLoop=1;jettySize=auto;html=1;exitX=1;exitY=0.5;exitDx=0;exitDy=0;entryX=0.25;entryY=1;entryDx=0;entryDy=0;endSize=6;shadow=0;fillColor=#1ba1e2;strokeWidth=1;width=4;strokeColor=#006EAF;opacity=70;" edge="1" parent="1" source="EPMx4ZkjcdX6J0T9C3sz-41" target="EPMx4ZkjcdX6J0T9C3sz-50">
          <mxGeometry relative="1" as="geometry">
            <mxPoint x="1996" y="898" as="sourcePoint" />
            <mxPoint x="2186" y="830" as="targetPoint" />
          </mxGeometry>
        </mxCell>
      </root>
    </mxGraphModel>
  </diagram>
</mxfile>
